PathFileType	4	(X/Y/Z)	Patient4_TMGait_0pt5_01_left_07.trc.trc
DataRate	CameraRate	NumFrames	NumMarkers	Units	OrigDataRate	OrigDataStartFrame	OrigNumFrames
74.468085106383	74.468085106383	7	33	mm	74.468085106383	124	       141
Frame#	Time	L.ASIS			Sacral			L.Shoulder			Chest			R.Shoulder			Neck			R.ASIS			R.Thigh.Superior			R.Thigh.Lateral			R.Thigh.Inferior			R.Patella			L.Thigh.Superior			L.Thigh.Lateral			L.Thigh.Inferior			L.Patella			L.Shank.Superior			L.Shank.Lateral			L.Shank.Inferior			R.Shank.Superior			R.Shank.Lateral			R.Shank.Inferior			R.Heel			R.Midfoot.Superior			R.Midfoot.Lateral			R.Toe			L.Heel			L.Midfoot.Lateral			L.Midfoot.Superior			L.Toe			L.Elbow			L.Wrist			R.Elbow			R.Wrist			
		X1	Y1	Z1	X2	Y2	Z2	X3	Y3	Z3	X4	Y4	Z4	X5	Y5	Z5	X6	Y6	Z6	X7	Y7	Z7	X8	Y8	Z8	X9	Y9	Z9	X10	Y10	Z10	X11	Y11	Z11	X12	Y12	Z12	X13	Y13	Z13	X14	Y14	Z14	X15	Y15	Z15	X16	Y16	Z16	X17	Y17	Z17	X18	Y18	Z18	X19	Y19	Z19	X20	Y20	Z20	X21	Y21	Z21	X22	Y22	Z22	X23	Y23	Z23	X24	Y24	Z24	X25	Y25	Z25	X26	Y26	Z26	X27	Y27	Z27	X28	Y28	Z28	X29	Y29	Z29	X30	Y30	Z30	X31	Y31	Z31	X32	Y32	Z32	X33	Y33	Z33	

124	11.051714285714	698.780575927077	960.579794143099	335.250900113521	502.727143228029	999.460410085882	514.719613088761	660.010453407770	1443.014229044213	351.348137473291	778.605635227305	1355.232388506680	491.991173419990	717.187807852299	1413.647653228217	681.023287124549	683.425262569623	1488.975967563090	505.684732206234	737.652495825699	930.910121105421	607.624196961415	741.457590005670	722.058369377315	574.150238846870	645.817681505246	624.568438069053	639.983306763998	704.584935841984	561.440367709770	555.779912908148	686.968176683205	472.637498601413	559.330967085571	774.829786324127	771.674929730191	355.885562142881	716.328741960845	642.986617795691	286.081005385860	819.837385560476	582.060570049463	342.409936869341	843.768210247236	515.687362569712	341.356194120978	827.522764117233	443.402371130282	332.832650546060	758.813703276895	314.927327442000	283.231935342344	843.772973346795	214.883093259799	338.891123111238	645.878713449114	389.050328959464	567.068317623754	562.356311378741	298.105319884588	633.491006537323	582.080346050307	198.959973599023	567.013210587726	422.580789340464	44.876400162077	545.864393415805	597.082970196037	96.340936742341	572.524375755672	509.633637073581	36.539326478216	614.967156312256	716.840283659499	38.564511368631	593.853586606848	752.761372246891	40.661734998721	374.163948253592	830.664075025247	41.653852666383	297.590357495679	904.804322003639	113.753287152919	321.509999626402	1037.863373080698	75.377734767373	302.977023349340	535.954123281600	1125.261895837586	208.491644878951	623.515012343581	877.411796764644	182.002238187465	767.561581186127	1066.744268554981	779.675435215233	983.838178230122	932.967367183801	735.337903079071	
125	11.065142857143	700.223826971368	958.896233209204	333.404910058050	503.435460408380	997.802194368271	512.044202196626	658.718076206124	1441.100945398911	347.261828318587	777.466068865114	1354.709462150867	488.655352023099	715.094685958553	1413.598858145766	677.279530478259	681.420432739904	1487.931479567753	501.428135852557	738.285081113291	929.818203478561	605.824358140278	741.056938038134	720.351106641649	572.894207501286	644.133208780018	623.561981180819	638.407937915288	702.392497696061	559.819714427822	554.348825304315	683.828264652855	470.847480328879	557.582086347275	776.512509746337	769.663334952064	355.368562278741	717.547711805499	641.094229222135	285.763768675718	820.847807986340	580.297741517448	342.618775828515	843.569339672200	512.779613512889	342.122998856124	826.375718403879	439.959908060025	333.457688212823	755.034965366629	312.751222225177	283.991036017622	837.479682704201	211.069687702543	340.495676146910	641.913181343899	387.700672169874	565.644372349436	557.772579434541	297.573582405285	632.552441907978	576.252254344473	198.139271139258	566.249651475805	415.742865777989	44.576780562611	545.859067087185	590.235202902709	96.233582581282	572.346793606886	502.847528169047	36.369342073358	614.974944678478	710.146921114612	38.563206080263	593.891972311280	742.330147843892	39.314700951651	375.547648380748	820.356413875494	39.085631496974	298.980897377757	896.172556457197	109.062704424131	323.869214201638	1028.552564639240	67.593017982934	305.123142413310	536.068757089846	1122.404177174351	205.310014314653	623.922260726542	874.611064304089	179.324290068509	761.400152393623	1066.478595460972	778.243293882762	974.078083429698	925.610590669519	736.693324607348	
126	11.078571428571	701.795719716737	957.355148453751	331.535691589740	504.233945472755	996.232425261339	509.300817118655	657.508551442618	1439.164467693653	342.975800271052	776.422850834209	1354.291762402896	485.170205682210	713.058295685645	1413.749115013438	673.345906457576	679.467644898053	1486.978388461155	496.914937716580	739.038904464845	928.756928832355	603.959362350881	740.972664573756	718.692066852646	571.473756510075	642.914263661352	622.507293336691	636.651155590492	700.745469406525	558.212357552620	552.707103852266	681.331704448680	468.912398254909	555.697649893419	778.314826845888	767.727227344353	354.831846874369	718.809341340188	639.390646087802	285.376991794428	821.901209018524	578.643195188905	342.786800567886	843.316762497271	510.037731283084	342.894993724631	825.260790572914	436.766896201078	334.000758216828	751.558446155602	310.813836925302	284.434897549946	831.445001899340	207.627941263751	341.887127207547	638.392800963234	386.296152963066	564.084681688309	553.506987183807	297.117293018143	631.511306343413	570.615095556133	197.357199315176	565.431639491761	408.892415762822	44.471544561959	545.886357533004	583.467772289171	96.163457727862	572.161345148317	496.089402785747	36.288320080639	614.994090503075	703.525460210571	38.519820548728	593.932218569913	732.337419753640	38.196760577361	376.642830019201	810.431721286228	36.991228076723	300.035261043472	887.707553149427	105.014769125785	325.928274814802	1019.469798709375	60.832965568146	306.875087652421	536.531529710620	1119.373634378049	202.023667614160	624.635935170544	871.623292492995	176.573542288215	755.012002483144	1066.449657781554	776.682894510776	963.499212365716	918.053463434053	738.141750373161	
127	11.092000000000	703.415622093609	956.053362304323	329.605317409621	505.068774597035	994.819878331444	506.503812529712	656.374620364567	1437.278737129059	338.538650357176	775.473700743488	1354.015989255423	481.554839310010	711.126929943163	1414.137688715292	669.252582589496	677.598233618623	1486.169023757250	492.195243497037	739.861796745804	927.786534137974	602.000406515122	741.190222253332	717.160256224138	569.825926866094	642.228820945492	621.439135658698	634.692850923274	699.742152438473	556.674456080653	550.832556299523	679.631467587900	466.858342020035	553.710099499170	780.199217255342	766.018998739150	354.210657844754	720.151007888767	637.985155612976	284.861802246615	822.994016350720	577.198082476873	342.856004387462	843.059113333179	507.606537310268	343.601064136646	824.242344768593	433.963062072543	334.429759872889	748.542106303967	309.222470131564	284.494093001117	825.840307697117	204.705786000488	343.019481986094	635.426968665743	384.872760235008	562.401279341743	549.638971616591	296.818100657801	630.365897381082	565.238139499637	196.691178986804	564.570681678281	402.054051388731	44.728589471849	545.942724661847	576.828853105789	96.160833847219	571.974272927669	489.369365684735	36.391638193863	615.018068976978	696.960896808392	38.427532368759	593.967872937348	723.041275507149	37.371149982230	377.429716771923	801.157887845301	35.438493869621	300.745951773613	879.629171990871	101.770231902409	327.608802494480	1010.861164079907	55.353210300880	308.194565488147	537.383338176200	1116.238596688989	198.674299472946	625.630276299160	868.498578569537	173.754174442841	748.402576243964	1066.711742010841	774.979447524247	952.004758562263	910.393920441415	739.637229405331	
128	11.105428571429	705.012562940279	955.072833851453	327.569327508343	505.889722013652	993.624435187383	503.656627554178	655.302403483380	1435.520751395196	333.998137616013	774.607165399391	1353.916809630514	477.827744937326	709.335471255248	1414.793537747026	665.029206158425	675.832759772421	1485.550707435891	487.324031702127	740.699628487771	926.972627238395	599.918470156789	741.707247838568	715.840071682261	567.915819437502	642.147314134090	620.398171918326	632.527643966400	699.497084986960	555.267979770911	548.729261807073	678.895412560119	464.723581860176	551.674135067085	782.117983231665	764.657349146344	353.438363543427	721.579781022819	636.950399050691	284.167884330193	824.082404195321	576.023089257030	342.779226738946	842.801695964036	505.578445808631	344.182694215682	823.325173407631	431.628538840528	334.727706020951	746.032190810226	308.035455047155	284.142116000179	820.716388887556	202.376815116501	343.877018343788	633.148409695312	383.475826462281	560.625009364779	546.267257453707	296.772602983153	629.120447920432	560.211523011044	196.235782601117	563.686411547482	395.275004198618	45.557721760542	546.016364519154	570.381642944560	96.263462937713	571.794481440499	482.705064844753	36.802768359309	615.035442964616	690.426539786597	38.282596634011	593.991835422269	714.541398123465	36.852108541745	377.915826757010	792.646810035141	34.424869091325	301.134827513462	872.029501343378	99.389212842636	328.872515989757	1002.834938912845	51.259990815552	309.082862848691	538.648443115610	1113.079728973819	195.297992092465	626.891187911593	865.308985014854	170.873253757131	741.565639124221	1067.315424802976	773.122298407111	939.488558755267	902.742485413140	741.137042232534	
129	11.118857142857	706.533023249350	954.470637437499	325.385799068781	506.653255973820	992.691785305040	500.750065877188	654.276360006366	1433.962352925266	329.397101728524	773.804869117673	1354.023279541741	474.007646387368	707.698794883387	1415.730640283775	660.704069758831	674.179288195322	1485.160522843371	482.356499578089	741.501112095330	926.377629071808	597.689479072904	742.538521094053	714.812873627217	565.739755203365	642.743076898121	619.426105063410	630.165105849485	700.136292526317	554.055233350501	546.425372876362	679.295696262930	462.556427769338	549.658927467950	784.011791271116	763.706343646524	352.452568059641	723.053224514708	636.310439971218	283.261625314522	825.075805034346	575.128871909351	342.524282609098	842.494129929899	503.984008681524	344.601108759232	822.447068929358	429.780021425814	334.891473171470	743.959418111520	307.256417172304	283.401367911699	816.012230059233	200.641244817319	344.472860573720	631.709176217593	382.156543664049	558.801384758593	543.509647952577	297.084714463455	627.783307719484	555.645377333265	196.095975127825	562.802965663953	388.629185205214	47.197344951674	546.085230422061	564.203196939256	96.514429549479	571.631201316709	476.125062663107	37.667508379109	615.029174982115	683.887542930554	38.084808465426	593.997490925793	706.795922453202	36.611709996360	378.132670714602	784.869515883762	33.889221045579	301.247693519271	864.886645714461	97.836883562520	329.723845833055	995.374484978867	48.515218977419	309.578798723265	540.328569754193	1109.984146808648	191.920868017381	628.416307813771	862.143718184732	167.940701557457	734.485979334039	1068.301009461688	771.105145690384	925.850816912351	895.219799175391	742.601482188885	
130	11.132285714286	707.944477130816	954.272776179419	323.025250605427	507.324012954069	992.050453902084	497.764637307274	653.284900952147	1432.662903039028	324.771255453437	773.045159832971	1354.355911567981	470.115291715045	706.208715736658	1416.945322814097	656.304672655079	672.634336247837	1485.021535482757	477.344341408274	742.221937283386	926.052202482210	595.299261575806	743.716694725071	714.148677122241	563.323141435899	644.090462158219	618.560847996328	627.628530261853	701.787411071150	553.093225917979	543.967621666807	680.993335770226	460.412327988410	547.737704165350	785.810542103141	763.165795755595	351.201771163123	724.473836581397	636.039338670210	282.131150703589	825.843710988268	574.478541718883	342.076029651943	842.033656349024	502.795553197271	344.839764750015	821.487869103367	428.378657769885	334.927792938494	742.158104940081	306.839251782810	282.339162495043	811.583247666802	199.438304658120	344.842683499347	631.270409148490	380.967801156941	556.984228790752	541.498000271407	297.855784566944	626.364941900614	551.665118522002	196.377830693212	561.944673515662	382.218274655185	49.893488929885	546.116629504133	558.381293769392	96.958677884780	571.491216394522	469.671914837368	39.143168032300	614.976975908471	677.307538050073	37.837313714416	593.979964935749	699.658423558921	36.592445165369	378.129728190904	777.691469117666	33.730900703718	301.146257310545	858.095425307087	97.002800692518	330.205286191758	988.369721813460	46.962092093366	309.750409773869	542.400193612754	1107.038521341539	188.556864480501	630.212660902499	859.101597634182	164.969223686242	727.145021759612	1069.692428071060	768.927043453630	911.018553768968	887.952500950317	743.993682520384	
